<svg width="61" height="60" viewBox="0 0 61 60" fill="none" xmlns="http://www.w3.org/2000/svg">
<g clip-path="url(#clip0_0_492)">
<path d="M19.9341 23.3911C19.7741 23.0772 19.4611 22.8711 19.1101 22.8482L10.6978 22.2872C10.2619 22.2442 9.85887 22.5142 9.69985 22.9201L3.63534 38.419C3.47233 38.835 3.60534 39.3079 3.96135 39.5789C4.13935 39.7148 4.35334 39.7829 4.56626 39.7829C4.7772 39.7829 4.98825 39.7169 5.16626 39.583L10.1999 35.8083L13.1307 36.3942C13.6087 36.4893 14.0866 36.2272 14.2606 35.7703C15.8346 31.6476 17.7293 27.8139 19.8901 24.3772C20.0772 24.079 20.0942 23.704 19.9341 23.3911ZM12.6986 34.2682L10.1529 33.7593C9.87492 33.7043 9.58489 33.7703 9.35696 33.9402L6.77816 35.874L11.2948 24.3309L17.3323 24.7329C15.5924 27.6778 14.0386 30.8754 12.6986 34.2682Z" fill="#EF2A82"/>
<path d="M38.5837 50.174L38.0228 41.7606C37.9987 41.4086 37.7927 41.0957 37.4788 40.9356C37.1658 40.7757 36.7908 40.7916 36.4929 40.9796C33.0551 43.1404 29.2224 45.0353 25.0998 46.6091C24.6438 46.7821 24.3798 47.2601 24.4759 47.739L25.0618 50.6698L21.2872 55.7024C21.0191 56.0604 21.0202 56.5524 21.2911 56.9084C21.4841 57.1623 21.7811 57.3033 22.0871 57.3033C22.2091 57.3033 22.3321 57.2803 22.452 57.2363L37.9508 51.1717C38.3567 51.013 38.6127 50.6089 38.5837 50.174ZM24.9957 54.0907L26.9296 51.5119C27.0996 51.2849 27.1656 50.995 27.1096 50.716L26.6006 48.1712C29.9943 46.8313 33.1911 45.2774 36.1358 43.5375L36.5388 49.574L24.9957 54.0907Z" fill="#EF2A82"/>
<path d="M29.8684 30.0005H23.1309C22.7679 30.0005 22.434 30.1975 22.2569 30.5145L13.8005 45.7094C13.5805 46.1054 13.6545 46.6013 13.9805 46.9153C14.1715 47.0993 14.4224 47.1953 14.6745 47.1953C14.8525 47.1953 15.0314 47.1483 15.1914 47.0503L30.3862 37.8551C30.6852 37.6741 30.8682 37.3501 30.8682 37.0002V31.0005C30.8683 30.4486 30.4203 30.0005 29.8684 30.0005ZM28.8685 36.4371L17.3804 43.3896L23.718 32.0014V32.0003H28.8685V36.4371Z" fill="#EF2A82"/>
<path d="M60.8201 0.963709C60.7791 0.4768 60.3932 0.0907879 59.9062 0.0497726C59.5742 0.0237573 26.6458 -2.27509 12.3929 35.0561C12.2519 35.4252 12.3408 35.8411 12.6199 36.1201L17.3745 40.8747C17.5975 41.0977 17.9094 41.1996 18.2224 41.1577C18.5334 41.1127 18.8054 40.9247 18.9574 40.6497L23.721 32.0004H28.8687V36.449L20.1674 41.9426C19.9104 42.1056 19.7414 42.3756 19.7074 42.6776C19.6734 42.9796 19.7794 43.2805 19.9944 43.4956L24.749 48.2502C24.94 48.4412 25.195 48.5431 25.456 48.5431C25.576 48.5431 25.6969 48.5221 25.8129 48.4771C63.1459 34.2232 60.8481 1.29476 60.8201 0.963709ZM55.5745 18.7044C52.0657 27.3857 44.0364 39.1879 25.7028 46.3763L22.293 42.9666L30.4024 37.8469C30.6923 37.663 30.8684 37.344 30.8684 37.001V31.0014C30.8684 30.4494 30.4203 30.0014 29.8684 30.0014H23.1289C22.764 30.0014 22.4289 30.2004 22.2529 30.5194L17.8463 38.5208L14.4936 35.167C27.0057 3.24755 53.6756 1.94163 58.8602 2.01464C58.8972 4.34653 58.6832 11.012 55.5745 18.7044Z" fill="#EF2A82"/>
<path d="M17.9992 44.1645C17.7822 43.8765 17.4362 43.7365 17.0972 43.7725C17.1323 43.4325 16.9922 43.0875 16.7052 42.8705C15.1974 41.7306 13.2515 41.3516 11.3647 41.8295C9.36187 42.3385 7.72396 43.7044 6.87202 45.5793L0.960549 58.5853C0.787582 58.9652 0.868558 59.4123 1.16352 59.7062C1.35453 59.8981 1.61046 59.9991 1.8705 59.9991C2.01054 59.9991 2.15151 59.9691 2.28452 59.9091L15.2906 53.9966C17.1644 53.1457 18.5303 51.5078 19.0392 49.505C19.5182 47.6202 19.1392 45.6734 17.9992 44.1645ZM17.1013 49.013C16.7433 50.424 15.7815 51.5768 14.4636 52.1768L3.88435 56.9855L8.69297 46.4053C9.29191 45.0874 10.4458 44.1254 11.8568 43.7676C12.2278 43.6736 12.6007 43.6275 12.9686 43.6275C13.5916 43.6275 14.2005 43.7605 14.7555 44.0195L13.8036 45.7044C13.5826 46.0953 13.6496 46.5864 13.9675 46.9033C14.2855 47.2223 14.7765 47.2883 15.1665 47.0673L16.8514 46.1143C17.2613 46.9963 17.3543 48.0151 17.1013 49.013Z" fill="#EF2A82"/>
<path d="M60.8201 0.964828C60.779 0.477918 60.393 0.0919066 59.9061 0.0508914C59.5161 0.019837 50.2468 -0.682109 39.3456 4.33956C39.0487 4.4755 38.8376 4.74948 38.7796 5.07151C38.7216 5.39353 38.8257 5.72341 39.0567 5.95439L54.9155 21.8132C55.1045 22.0022 55.3595 22.1062 55.6225 22.1062C55.6814 22.1062 55.7405 22.1011 55.7994 22.0912C56.1215 22.0332 56.3944 21.8222 56.5314 21.5252C61.554 10.624 60.8521 1.35377 60.8201 0.964828ZM55.2985 19.3664L41.5035 5.57142C49.4839 2.20267 56.4723 1.97064 58.8612 2.01072C58.9011 4.40155 58.6761 11.368 55.2985 19.3664Z" fill="#EF2A82"/>
<path d="M45.0312 15.8387C41.6685 12.4759 36.198 12.4759 32.8352 15.8387C29.4724 19.2014 29.4724 24.6719 32.8352 28.0347C34.5161 29.7166 36.725 30.5566 38.9328 30.5566C41.1416 30.5566 43.3494 29.7156 45.0312 28.0347C48.394 24.6719 48.394 19.2013 45.0312 15.8387ZM43.6174 26.6207C41.0346 29.2035 36.832 29.2035 34.2492 26.6207C31.6664 24.038 31.6664 19.8353 34.2492 17.2525C35.5401 15.9616 37.2369 15.3157 38.9329 15.3157C40.6288 15.3157 42.3257 15.9616 43.6175 17.2525C46.2002 19.8353 46.2002 24.038 43.6174 26.6207Z" fill="#EF2A82"/>
<path d="M40.9206 23.925C39.8246 25.0229 38.0408 25.0219 36.9438 23.925C35.8479 22.8281 35.8479 21.0453 36.9438 19.9483C38.0398 18.8523 39.8236 18.8514 40.9206 19.9483C41.3106 20.3392 41.9445 20.3392 42.3344 19.9483C42.7254 19.5573 42.7254 18.9253 42.3344 18.5344C40.4596 16.6586 37.4058 16.6586 35.53 18.5344C33.6541 20.4102 33.6541 23.463 35.53 25.3388C36.4679 26.2768 37.7009 26.7458 38.9327 26.7458C40.1656 26.7458 41.3975 26.2768 42.3344 25.3388C42.7254 24.9479 42.7254 24.3159 42.3344 23.925C41.9444 23.5341 41.3106 23.5341 40.9206 23.925Z" fill="#EF2A82"/>
</g>
<defs>
<clipPath id="clip0_0_492">
<rect width="60" height="60" fill="white" transform="translate(0.870605)"/>
</clipPath>
</defs>
</svg>
